# xmcd
#
# Track frame offsets:
#	150
#	11157
#	23842
#	33212
#	43795
#	54970
#	65918
#	78745
#	91144
#	104128
#	112426
#	122503
#	133079
#	142102
#	156296
#	168108
#	179345
#	189341
#	199383
#	210890
#	221577
#	231137
#	245313
#	255187
#	267791
#	280413
#	293575
#	304816
#
# Disc length: 4197 seconds
#
# Revision: 1
# Processed by: cddbd v1.5.1PL0 Copyright (c) Steve Scherf et al.
# Submitted via: audiograbber 1.82.02
#
DISCID=9b10631c
DTITLE=Hank Snow - The Hank Snow Collection CD 6
DYEAR=1900
DGENRE=Country
TTITLE0=My Filopino Rose
TTITLE1=Lilli Marlane
TTITLE2=Melba From Melbourne
TTITLE3=Atlanta Constaline
TTITLE4=Isle Of Sicily
TTITLE5=The Gypsy and Me
TTITLE6=I Ain't Been Anywhere
TTITLE7=He'll Say Well Done
TTITLE8=I Saw A Man
TTITLE9=A Rich Man and I
TTITLE10=Jesus Wept
TTITLE11=Movin' Onto Glory
TTITLE12=Gloryland March
TTITLE13=Farther Along
TTITLE14=Invisable Hands
TTITLE15=The Last Mile
TTITLE16=Sweet Hour Of Prayer
TTITLE17=These Things Shall Pass
TTITLE18=What Then
TTITLE19=The Lords Way
TTITLE20=Remember Me
TTITLE21=I Saw Jesus
TTITLE22=Old Fashioned Religion
TTITLE23=On The Inside
TTITLE24=The Runt
TTITLE25=How Big Is God
TTITLE26=Shop Worn
TTITLE27=A Man Who Is
EXTD=
EXTT0=
EXTT1=
EXTT2=
EXTT3=
EXTT4=
EXTT5=
EXTT6=
EXTT7=
EXTT8=
EXTT9=
EXTT10=
EXTT11=
EXTT12=
EXTT13=
EXTT14=
EXTT15=
EXTT16=
EXTT17=
EXTT18=
EXTT19=
EXTT20=
EXTT21=
EXTT22=
EXTT23=
EXTT24=
EXTT25=
EXTT26=
EXTT27=
PLAYORDER=
